<svg width="150" height="120" viewBox="0 0 150 120" fill="none" xmlns="http://www.w3.org/2000/svg">
<path d="M101.094 65L101.392 65.401L102.63 64.4795L101.087 64.5L101.094 65ZM101.094 65C101.392 65.401 101.392 65.4011 101.392 65.4013L101.391 65.4021L101.386 65.4057L101.367 65.4197L101.292 65.4755L101.001 65.6931C100.745 65.8839 100.37 66.164 99.8933 66.5213C98.9391 67.2359 97.5756 68.259 95.9392 69.493C92.6661 71.961 88.3016 75.2723 83.9345 78.6457C79.5665 82.0198 75.1998 85.4532 71.9208 88.1665C70.2802 89.5239 68.9184 90.6959 67.9663 91.5876C67.4891 92.0345 67.1238 92.4027 66.8797 92.6838C66.757 92.8251 66.674 92.934 66.6239 93.0126C66.6093 93.0354 66.5997 93.0525 66.5934 93.0642C66.5998 93.1838 66.6545 93.3783 66.8062 93.6556C66.9703 93.9558 67.2206 94.3038 67.5446 94.683C68.1918 95.4403 69.0944 96.2772 70.0706 97.0444C71.0467 97.8114 72.0787 98.4949 72.9783 98.9529C73.4286 99.1821 73.8334 99.3486 74.1732 99.4431C74.5244 99.5408 74.7528 99.5464 74.8787 99.5149C74.8718 99.5166 74.8728 99.5161 74.8835 99.5109C74.9039 99.501 74.9595 99.4739 75.0627 99.4121C75.1993 99.3304 75.3812 99.2119 75.6081 99.0562C76.0609 98.7453 76.6726 98.3002 77.4226 97.7377C78.9215 96.6135 80.9567 95.0325 83.3464 93.1466C88.125 89.3752 94.3104 84.3926 100.435 79.4242C106.559 74.4561 112.621 69.5035 117.152 65.7928C119.417 63.9375 121.3 62.3928 122.616 61.3118C123.274 60.7714 123.791 60.3469 124.143 60.0575L124.213 60L124.143 59.9425C123.791 59.6531 123.274 59.2286 122.616 58.6881C121.3 57.6072 119.417 56.0624 117.152 54.2071C112.621 50.4965 106.559 45.5439 100.435 40.5758C94.3104 35.6074 88.125 30.6247 83.3465 26.8534C80.9568 24.9674 78.9215 23.3865 77.4226 22.2623C76.6726 21.6998 76.0609 21.2547 75.6081 20.9438C75.3812 20.788 75.1993 20.6696 75.0627 20.5878C74.9595 20.5261 74.9039 20.499 74.8835 20.489C74.8728 20.4838 74.8718 20.4833 74.8787 20.4851C74.753 20.4536 74.5276 20.4592 74.1824 20.5565C73.8481 20.6506 73.4503 20.8166 73.0075 21.0457C72.1228 21.5032 71.1083 22.1863 70.1432 22.9538C69.1784 23.7211 68.2796 24.5593 67.6216 25.3194C67.2922 25.6999 67.0314 26.0513 66.853 26.3567C66.6915 26.633 66.6184 26.8365 66.5985 26.9701C66.6031 26.9787 66.6089 26.9894 66.6165 27.0021C66.6603 27.0764 66.7368 27.1825 66.8544 27.3227C67.0882 27.6014 67.4444 27.9681 67.9149 28.4147C68.8533 29.3054 70.2062 30.4766 71.8422 31.8339C75.1119 34.5468 79.4841 37.9798 83.8637 41.3539C88.2423 44.7272 92.6243 48.0383 95.9119 50.5064C97.5557 51.7403 98.9257 52.7634 99.8847 53.478C100.364 53.8352 100.741 54.1153 100.998 54.3061L101.291 54.5238L101.366 54.5795L101.385 54.5935L101.39 54.5971L101.391 54.5979C101.391 54.5981 101.391 54.5982 101.094 55M101.094 65C101.087 64.5 101.087 64.5 101.086 64.5L101.084 64.5001L101.073 64.5002L101.033 64.5008L100.872 64.5029L100.244 64.511C99.6935 64.5181 98.8864 64.5283 97.8589 64.541C95.8038 64.5664 92.8667 64.6016 89.3391 64.6406C82.2839 64.7188 72.8667 64.8125 63.4185 64.875C53.9698 64.9375 44.492 64.9687 37.3147 64.9219C33.7255 64.8984 30.7152 64.8555 28.5726 64.7874C27.5003 64.7532 26.6516 64.713 26.0586 64.6663C25.7606 64.6429 25.537 64.6185 25.3853 64.5943C25.3566 64.5897 25.3321 64.5853 25.3115 64.5814C25.3018 64.5634 25.2911 64.542 25.2797 64.5168C25.2392 64.4273 25.1966 64.306 25.154 64.1509C25.0689 63.8407 24.9944 63.4327 24.9335 62.9526C24.8119 61.9947 24.75 60.7978 24.75 59.625C24.75 58.4506 24.8121 57.3205 24.9323 56.4938C24.9931 56.076 25.065 55.7627 25.1396 55.5654C25.149 55.5405 25.158 55.5187 25.1664 55.5H25.1904H25.217H25.2451H25.2749H25.3062H25.3392H25.3737H25.4098H25.4474H25.4866H25.5274H25.5697H25.6136H25.659H25.706H25.7544H25.8044H25.8559H25.9089H25.9633H26.0193H26.0768H26.1357H26.1961H26.2579H26.3213H26.386H26.4522H26.5199H26.5889H26.6594H26.7313H26.8047H26.8794H26.9555H27.033H27.1119H27.1922H27.2738H27.3568H27.4411H27.5268H27.6139H27.7023H27.792H27.883H27.9754H28.069H28.164H28.2602H28.3578H28.4566H28.5567H28.6581H28.7607H28.8646H28.9697H29.0761H29.1837H29.2926H29.4026H29.5139H29.6264H29.7401H29.855H29.9711H30.0883H30.2068H30.3264H30.4471H30.569H30.6921H30.8163H30.9417H31.0682H31.1958H31.3245H31.4543H31.5852H31.7173H31.8504H31.9846H32.1198H32.2562H32.3936H32.532H32.6715H32.8121H32.9537H33.0963H33.2399H33.3846H33.5302H33.6769H33.8246H33.9732H34.1228H34.2734H34.425H34.5776H34.731H34.8855H35.0409H35.1972H35.3544H35.5126H35.6717H35.8317H35.9926H36.1544H36.3171H36.4806H36.6451H36.8104H36.9765H37.1436H37.3114H37.4802H37.6497H37.8201H37.9913H38.1633H38.3361H38.5098H38.6842H38.8594H39.0354H39.2122H39.3897H39.568H39.7471H39.9269H40.1074H40.2887H40.4707H40.6535H40.8369H41.0211H41.2059H41.3915H41.5777H41.7647H41.9523H42.1406H42.3295H42.5191H42.7093H42.9002H43.0917H43.2839H43.4766H43.67H43.864H44.0586H44.2538H44.4496H44.6459H44.8429H45.0404H45.2384H45.4371H45.6362H45.836H46.0362H46.237H46.4383H46.6401H46.8424H47.0452H47.2486H47.4524H47.6567H47.8614H48.0667H48.2724H48.4785H48.6851H48.8922H49.0997H49.3076H49.5159H49.7246H49.9338H50.1434H50.3533H50.5637H50.7744H50.9855H51.1969H51.4088H51.621H51.8335H52.0464H52.2596H52.4731H52.687H52.9012H53.1156H53.3304H53.5455H53.7609H53.9765H54.1925H54.4087H54.6251H54.8418H55.0588H55.276H55.4935H55.7111H55.929H56.1471H56.3654H56.584H56.8027H57.0216H57.2407H57.4599H57.6793H57.8989H58.1187H58.3386H58.5586H58.7788H58.9991H59.2195H59.44H59.6607H59.8814H60.1023H60.3232H60.5442H60.7653H60.9864H61.2077H61.4289H61.6503H61.8716H62.093H62.3145H62.5359H62.7574H62.9788H63.2003H63.4218H63.6432H63.8647H64.0861H64.3075H64.5288H64.7501H64.9714H65.1926H65.4137H65.6348H65.8557H66.0766H66.2974H66.5181H66.7387H66.9592H67.1796H67.3998H67.62H67.8399H68.0598H68.2794H68.499H68.7183H68.9375H69.1565H69.3753H69.594H69.8124H70.0306H70.2486H70.4664H70.684H70.9013H71.1184H71.3353H71.5519H71.7682H71.9843H72.2001H72.4157H72.6309H72.8459H73.0605H73.2749H73.4889H73.7027H73.9161H74.1291H74.3419H74.5542H74.7663H74.9779H75.1893H75.4002H75.6107H75.8209H76.0307H76.2401H76.4491H76.6576H76.8658H77.0735H77.2808H77.4877H77.6941H77.9H78.1055H78.3106H78.5151H78.7192H78.9228H79.1259H79.3285H79.5306H79.7322H79.9333H80.1339H80.3339H80.5334H80.7323H80.9307H81.1285H81.3258H81.5225H81.7186H81.9141H82.109H82.3034H82.4971H82.6902H82.8827H83.0746H83.2658H83.4564H83.6464H83.8357H84.0244H84.2123H84.3997H84.5863H84.7722H84.9575H85.1421H85.3259H85.5091H85.6915H85.8732H86.0542H86.2344H86.4139H86.5926H86.7706H86.9478H87.1242H87.2999H87.4748H87.6488H87.8221H87.9946H88.1663H88.3371H88.5071H88.6763H88.8447H89.0122H89.1789H89.3447H89.5096H89.6737H89.8368H89.9991H90.1605H90.3211H90.4807H90.6393H90.7971H90.954H91.1099H91.2649H91.4189H91.572H91.7241H91.8753H92.0254H92.1746H92.3229H92.4701H92.6163H92.7616H92.9058H93.049H93.1911H93.3323H93.4724H93.6114H93.7494H93.8864H94.0222H94.1571H94.2908H94.4234H94.555H94.6854H94.8148H94.943H95.0701H95.1961H95.321H95.4447H95.5673H95.6887H95.809H95.9281H96.046H96.1628H96.2783H96.3927H96.5059H96.6179H96.7286H96.8382H96.9465H97.0535H97.1594H97.264H97.3673H97.4694H97.5702H97.6698H97.7681H97.8651H97.9607H98.0551H98.1482H98.24H98.3305H98.4196H98.5074H98.5939H98.679H98.7628H98.8452H98.9262H99.0059H99.0842H99.1611H99.2366H99.3107H99.3834H99.4547H99.5246H99.5931H99.6601H99.7257H99.7898H99.8525H99.9137H99.9735H100.032H100.089H100.144H100.198H100.25H100.301H100.35H100.398H100.444H100.489H100.532H100.574H100.614H100.653H100.69H100.725H100.759H100.791H100.822H100.851H100.878H100.904H100.928H100.951H100.972H100.991H101.009H101.025H101.039H101.052H101.063H101.072H101.08H101.086H101.09H101.093C101.093 55.5 101.094 55.5 101.094 55M101.094 55V55.5H102.608L101.391 54.5982L101.094 55Z" fill="black" stroke="white"/>
</svg>
