<svg width="150" height="120" viewBox="0 0 150 120" fill="none" xmlns="http://www.w3.org/2000/svg">
<path d="M48.9063 65L48.6076 65.401L47.3705 64.4795L48.913 64.5L48.9063 65ZM48.9063 65C48.6076 65.401 48.6077 65.4011 48.608 65.4013L48.6092 65.4021L48.6139 65.4057L48.6328 65.4197L48.7075 65.4755L48.9992 65.6931C49.2547 65.8839 49.6295 66.164 50.1067 66.5213C51.0609 67.2359 52.4244 68.259 54.0608 69.493C57.3339 71.961 61.6984 75.2723 66.0655 78.6457C70.4335 82.0198 74.8002 85.4532 78.0792 88.1665C79.7198 89.5239 81.0816 90.6959 82.0337 91.5876C82.5109 92.0345 82.8762 92.4027 83.1203 92.6838C83.243 92.8251 83.326 92.934 83.3761 93.0126C83.3907 93.0354 83.4003 93.0525 83.4066 93.0642C83.4002 93.1838 83.3455 93.3783 83.1938 93.6556C83.0297 93.9558 82.7794 94.3038 82.4554 94.683C81.8082 95.4403 80.9056 96.2772 79.9294 97.0444C78.9533 97.8114 77.9213 98.4949 77.0217 98.9529C76.5714 99.1821 76.1666 99.3486 75.8268 99.4431C75.4756 99.5408 75.2472 99.5464 75.1213 99.5149C75.1282 99.5166 75.1272 99.5161 75.1165 99.5109C75.0961 99.501 75.0405 99.4739 74.9373 99.4121C74.8007 99.3304 74.6188 99.2119 74.3919 99.0562C73.9391 98.7453 73.3274 98.3002 72.5774 97.7377C71.0785 96.6135 69.0433 95.0325 66.6536 93.1466C61.875 89.3752 55.6896 84.3926 49.565 79.4242C43.4409 74.4561 37.379 69.5035 32.8481 65.7928C30.5827 63.9375 28.7 62.3928 27.3838 61.3118C26.7257 60.7714 26.2091 60.3469 25.8571 60.0575L25.7872 60L25.8571 59.9425C26.2091 59.6531 26.7256 59.2286 27.3838 58.6881C28.7 57.6072 30.5827 56.0624 32.8481 54.2071C37.379 50.4965 43.4408 45.5439 49.565 40.5758C55.6896 35.6074 61.875 30.6247 66.6535 26.8534C69.0432 24.9674 71.0785 23.3865 72.5774 22.2623C73.3274 21.6998 73.9391 21.2547 74.3919 20.9438C74.6188 20.788 74.8007 20.6696 74.9373 20.5878C75.0405 20.5261 75.0961 20.499 75.1165 20.489C75.1272 20.4838 75.1282 20.4833 75.1213 20.4851C75.247 20.4536 75.4724 20.4592 75.8176 20.5565C76.1519 20.6506 76.5497 20.8166 76.9925 21.0457C77.8772 21.5032 78.8917 22.1863 79.8568 22.9538C80.8216 23.7211 81.7204 24.5593 82.3784 25.3194C82.7078 25.6999 82.9686 26.0513 83.147 26.3567C83.3085 26.633 83.3816 26.8365 83.4015 26.9701C83.3969 26.9787 83.3911 26.9894 83.3835 27.0021C83.3397 27.0764 83.2632 27.1825 83.1456 27.3227C82.9118 27.6014 82.5556 27.9681 82.0851 28.4147C81.1467 29.3054 79.7938 30.4766 78.1578 31.8339C74.8881 34.5468 70.5159 37.9798 66.1363 41.3539C61.7577 44.7272 57.3757 48.0383 54.0881 50.5064C52.4443 51.7403 51.0743 52.7634 50.1153 53.478C49.6358 53.8352 49.2591 54.1153 49.0022 54.3061L48.7091 54.5238L48.634 54.5795L48.615 54.5935L48.6102 54.5971L48.609 54.5979C48.6088 54.5981 48.6087 54.5982 48.9063 55M48.9063 65C48.913 64.5 48.9132 64.5 48.9138 64.5L48.9164 64.5001L48.9266 64.5002L48.9673 64.5008L49.1283 64.5029L49.7563 64.511C50.3065 64.5181 51.1136 64.5283 52.1411 64.541C54.1962 64.5664 57.1333 64.6016 60.6609 64.6406C67.7161 64.7188 77.1333 64.8125 86.5815 64.875C96.0302 64.9375 105.508 64.9687 112.685 64.9219C116.275 64.8984 119.285 64.8555 121.427 64.7874C122.5 64.7532 123.348 64.713 123.941 64.6663C124.239 64.6429 124.463 64.6185 124.615 64.5943C124.643 64.5897 124.668 64.5853 124.688 64.5814C124.698 64.5634 124.709 64.542 124.72 64.5168C124.761 64.4273 124.803 64.306 124.846 64.1509C124.931 63.8407 125.006 63.4327 125.067 62.9526C125.188 61.9947 125.25 60.7978 125.25 59.625C125.25 58.4506 125.188 57.3205 125.068 56.4938C125.007 56.076 124.935 55.7627 124.86 55.5654C124.851 55.5405 124.842 55.5187 124.834 55.5H124.81H124.783H124.755H124.725H124.694H124.661H124.626H124.59H124.553H124.513H124.473H124.43H124.386H124.341H124.294H124.246H124.196H124.144H124.091H124.037H123.981H123.923H123.864H123.804H123.742H123.679H123.614H123.548H123.48H123.411H123.341H123.269H123.195H123.121H123.044H122.967H122.888H122.808H122.726H122.643H122.559H122.473H122.386H122.298H122.208H122.117H122.025H121.931H121.836H121.74H121.642H121.543H121.443H121.342H121.239H121.135H121.03H120.924H120.816H120.707H120.597H120.486H120.374H120.26H120.145H120.029H119.912H119.793H119.674H119.553H119.431H119.308H119.184H119.058H118.932H118.804H118.676H118.546H118.415H118.283H118.15H118.015H117.88H117.744H117.606H117.468H117.328H117.188H117.046H116.904H116.76H116.615H116.47H116.323H116.175H116.027H115.877H115.727H115.575H115.422H115.269H115.115H114.959H114.803H114.646H114.487H114.328H114.168H114.007H113.846H113.683H113.519H113.355H113.19H113.023H112.856H112.689H112.52H112.35H112.18H112.009H111.837H111.664H111.49H111.316H111.141H110.965H110.788H110.61H110.432H110.253H110.073H109.893H109.711H109.529H109.347H109.163H108.979H108.794H108.608H108.422H108.235H108.048H107.859H107.671H107.481H107.291H107.1H106.908H106.716H106.523H106.33H106.136H105.941H105.746H105.55H105.354H105.157H104.96H104.762H104.563H104.364H104.164H103.964H103.763H103.562H103.36H103.158H102.955H102.751H102.548H102.343H102.139H101.933H101.728H101.521H101.315H101.108H100.9H100.692H100.484H100.275H100.066H99.8566H99.6467H99.4363H99.2256H99.0145H98.8031H98.5912H98.379H98.1665H97.9536H97.7404H97.5269H97.313H97.0988H96.8844H96.6696H96.4545H96.2391H96.0235H95.8075H95.5913H95.3749H95.1582H94.9412H94.724H94.5065H94.2889H94.071H93.8529H93.6346H93.416H93.1973H92.9784H92.7593H92.5401H92.3207H92.1011H91.8813H91.6614H91.4414H91.2212H91.0009H90.7805H90.56H90.3393H90.1186H89.8977H89.6768H89.4558H89.2347H89.0136H88.7923H88.5711H88.3497H88.1284H87.907H87.6855H87.4641H87.2426H87.0212H86.7997H86.5782H86.3568H86.1353H85.9139H85.6925H85.4712H85.2499H85.0286H84.8074H84.5863H84.3652H84.1443H83.9234H83.7026H83.4819H83.2613H83.0408H82.8204H82.6002H82.38H82.1601H81.9402H81.7206H81.501H81.2817H81.0625H80.8435H80.6247H80.406H80.1876H79.9694H79.7514H79.5336H79.316H79.0987H78.8816H78.6647H78.4481H78.2318H78.0157H77.7999H77.5843H77.3691H77.1541H76.9395H76.7251H76.5111H76.2973H76.0839H75.8709H75.6581H75.4458H75.2337H75.0221H74.8107H74.5998H74.3893H74.1791H73.9693H73.7599H73.5509H73.3424H73.1342H72.9265H72.7192H72.5123H72.3059H72.1H71.8945H71.6894H71.4849H71.2808H71.0772H70.8741H70.6715H70.4694H70.2678H70.0667H69.8661H69.6661H69.4666H69.2677H69.0693H68.8715H68.6742H68.4775H68.2814H68.0859H67.891H67.6966H67.5029H67.3098H67.1173H66.9254H66.7342H66.5436H66.3536H66.1643H65.9756H65.7877H65.6003H65.4137H65.2278H65.0425H64.8579H64.6741H64.4909H64.3085H64.1268H63.9458H63.7656H63.5861H63.4074H63.2294H63.0522H62.8758H62.7001H62.5252H62.3512H62.1779H62.0054H61.8337H61.6629H61.4929H61.3237H61.1553H60.9878H60.8211H60.6553H60.4904H60.3263H60.1632H60.0009H59.8395H59.6789H59.5193H59.3607H59.2029H59.046H58.8901H58.7351H58.5811H58.428H58.2759H58.1247H57.9746H57.8254H57.6771H57.5299H57.3837H57.2384H57.0942H56.951H56.8089H56.6677H56.5276H56.3886H56.2506H56.1136H55.9778H55.8429H55.7092H55.5766H55.445H55.3146H55.1852H55.057H54.9299H54.8039H54.679H54.5553H54.4327H54.3113H54.191H54.0719H53.954H53.8372H53.7217H53.6073H53.4941H53.3821H53.2714H53.1618H53.0535H52.9465H52.8406H52.736H52.6327H52.5306H52.4298H52.3302H52.2319H52.1349H52.0393H51.9449H51.8518H51.76H51.6695H51.5804H51.4926H51.4061H51.321H51.2372H51.1548H51.0738H50.9941H50.9158H50.8389H50.7634H50.6893H50.6166H50.5453H50.4754H50.4069H50.3399H50.2743H50.2102H50.1475H50.0863H50.0265H49.9682H49.9114H49.8561H49.8022H49.7499H49.6991H49.6497H49.6019H49.5557H49.5109H49.4677H49.426H49.3859H49.3474H49.3104H49.275H49.2412H49.2089H49.1783H49.1492H49.1217H49.0959H49.0717H49.0491H49.0281H49.0088H48.9911H48.9751H48.9607H48.948H48.937H48.9277H48.92H48.914H48.9097H48.9072C48.9066 55.5 48.9063 55.5 48.9063 55M48.9063 55V55.5H47.3915L48.6087 54.5982L48.9063 55Z" fill="black" stroke="white"/>
</svg>
